<svg width="32" height="33" viewBox="0 0 32 33" fill="none" xmlns="http://www.w3.org/2000/svg">
<path fill-rule="evenodd" clip-rule="evenodd" d="M17.0949 4.44445C20.0666 4.59051 22.8358 5.81597 24.9508 7.93239C27.2068 10.1898 28.4485 13.1905 28.4473 16.3816C28.4446 22.9668 23.0837 28.3248 16.4982 28.3248C14.0217 28.3248 12.0537 27.5639 10.783 26.8711L4.44849 28.5319L6.14374 22.343C5.09805 20.5317 4.54782 18.4772 4.54868 16.3722C4.55132 9.78716 9.91174 4.42969 16.498 4.42969L17.0949 4.44445ZM11.0764 24.709L11.4391 24.9241C12.964 25.8285 14.7119 26.3071 16.4941 26.3078H16.4981C21.9722 26.3078 26.4276 21.8545 26.4298 16.381C26.4308 13.7285 25.3987 11.2345 23.5236 9.35814C21.6484 7.48171 19.1548 6.44775 16.5021 6.44688C11.0238 6.44688 6.56837 10.8997 6.56619 16.3728C6.56544 18.2486 7.0905 20.0753 8.08468 21.6557L8.32082 22.0314L7.3175 25.6945L11.0764 24.709ZM22.518 19.2217C22.4434 19.0971 22.2444 19.0225 21.9458 18.8731C21.6473 18.7237 20.1794 18.0018 19.9057 17.9021C19.632 17.8027 19.4329 17.7529 19.2339 18.0516C19.0349 18.3503 18.4627 19.0225 18.2885 19.2217C18.1144 19.4208 17.9402 19.4458 17.6417 19.2964C17.3431 19.1471 16.3811 18.8319 15.2407 17.8152C14.3531 17.0239 13.7538 16.0467 13.5797 15.7479C13.4055 15.4492 13.5611 15.2876 13.7106 15.1389C13.8449 15.0051 14.0092 14.7903 14.1585 14.616C14.3078 14.4418 14.3575 14.3173 14.457 14.1182C14.5565 13.919 14.5068 13.7448 14.4321 13.5954C14.3575 13.446 13.7604 11.9771 13.5116 11.3795C13.2692 10.7977 13.023 10.8765 12.8398 10.8673C12.6658 10.8586 12.4666 10.8567 12.2676 10.8567C12.0685 10.8567 11.7451 10.9314 11.4714 11.2302C11.1977 11.5289 10.4264 12.251 10.4264 13.7197C10.4264 15.1887 11.4963 16.6076 11.6456 16.8068C11.7949 17.0061 13.7509 20.0202 16.746 21.3129C17.4583 21.6204 18.0145 21.804 18.4481 21.9415C19.1633 22.1686 19.8142 22.1366 20.3287 22.0598C20.9023 21.9741 22.0951 21.3378 22.3439 20.6409C22.5927 19.9436 22.5927 19.3462 22.518 19.2217Z" fill="white"/>
</svg>
